<?xml version="1.0" encoding="utf-8"?>
<!-- Generator: Adobe Illustrator 16.0.0, SVG Export Plug-In . SVG Version: 6.00 Build 0)  -->
<!DOCTYPE svg PUBLIC "-//W3C//DTD SVG 1.1//EN" "http://www.w3.org/Graphics/SVG/1.1/DTD/svg11.dtd">
<svg version="1.1" id="Layer" xmlns="http://www.w3.org/2000/svg" xmlns:xlink="http://www.w3.org/1999/xlink" x="0px" y="0px"
	 width="512px" height="512px" viewBox="0 0 512 512" enable-background="new 0 0 512 512" xml:space="preserve">
<path fill="#FFFFFF" d="M472,240.002H72.808l122.224-116.416c6.4-6.096,6.648-16.224,0.552-22.624
	c-6.088-6.392-16.216-6.648-22.624-0.552L33.376,233.37C27.336,239.418,24,247.45,24,256.002c0,8.544,3.336,16.584,9.656,22.896
	l139.312,132.688c3.096,2.952,7.064,4.416,11.032,4.416c4.224,0,8.448-1.664,11.592-4.968c6.096-6.4,5.848-16.521-0.552-22.616
	L72.304,272.002H472c8.832,0,16-7.168,16-16S480.832,240.002,472,240.002L472,240.002z"/>
</svg>
