<svg id="b08ad345-bfa3-446d-ab28-111a453a0204" data-name="Слой 1" xmlns="http://www.w3.org/2000/svg" viewBox="0 0 2300 2000"><path d="M1386.86464,958.0848s-95.7451,191.539-193.001,323.7568c-38.6972,52.623-77.6357,95.8418-110.8686,113.8662-32.5313,17.6377-60.07032,45.0439-82.85842,75.4111-59.0186,78.627-86.2549,177.0684-86.2549,177.0684L665.18594,1271.9402s8.48629-367.7846,38.34668-429.3056c43.5205-89.6524,64.543-270.7945,81.2622-306.856,12.4033-26.7529,47.8242-164.9429,51.2212-175.0977,1.4751-4.3759,13.2617-11.0854,28.5664-11.0732,12.2827,0,33.1362,11.8711,38.395,36.2671,26.5957,123.3081-5.416,204.6431-5.0532,208.2573,9.3808,94.7661-18.8228,165.1123.9551,183.7417.7373.689,2.103.3623,4.03762-.8706,34.28458-22.0142,247.0756-332.2427,273.2846-338.9404C1203.88514,431.0027,1386.86464,958.0848,1386.86464,958.0848Z" fill="#ffb27d"/><path d="M988.70062,1573.7254s-3.3868,167.1972-13.0831,392.3847H348.30413c143.3926-305.7802,268.0547-563.1455,268.0547-563.1455S973.54382,1413.8738,988.70062,1573.7254Z" fill="#698528"/><path d="M1604.30214,309.8499l-77.0156,112.9018-75.5723,110.7969c-4.6074,5.5601-9.9414,7.4927-15.7129,6.9365-18.1347-1.7207-40.5722-27.8779-58.0595-42.3593l-1.7735-1.4561a54.55262,54.55262,0,0,1-7.2412-76.5918l115.5098-139.6284v-.0132l34.2588-41.4067a54.55243,54.55243,0,0,1,76.5918-7.2407l1.7734,1.456A54.56732,54.56732,0,0,1,1604.30214,309.8499Z" fill="#ffb27d"/><path d="M1527.28654,422.7517l-75.5723,110.7969c-4.6074,5.5601-9.9414,7.4927-15.7129,6.9365l48.4356-260.0356C1484.54244,281.9056,1492.77674,398.5804,1527.28654,422.7517Z" fill="#efa26f"/><path d="M1193.86364,1281.8416c-38.6972,52.623-77.6357,95.8418-110.8686,113.8662-32.5313,17.6377-60.07032,45.0439-82.85842,75.4111-26.2114-12.2177-56.0894-26.5537-85.294-40.748-35.5629-17.2842-36.9272-67.7813-2.09468-86.4942q.51057-.2739,1.00048-.5546c32.6406-18.6778,66.0869-84.6231,66.0869-84.6231Z" fill="#efa26f"/><path d="M834.28362,366.4021l-20.1504,81.3521s17.6152,7.2065,28.9282,1.6108S863.60494,370.782,834.28362,366.4021Z" fill="#ffc197"/><path d="M980.47214,212.8738H1413.774a77.49208,77.49208,0,0,1,77.49208,77.49208V1242.7908a77.4922,77.4922,0,0,1-77.4922,77.4922H980.47214a77.4922,77.4922,0,0,1-77.4922-77.4922V290.366A77.4922,77.4922,0,0,1,980.47214,212.8738Z" fill="#3f3f3f"/><path d="M1462.11074,297.7014v930.3482c0,31.5625-25.6396,57.3789-56.9609,57.3789H989.09262c-31.32168,0-56.9506-25.8164-56.9506-57.3789V297.7014c0-31.5625,25.62892-57.3793,56.9506-57.3793h416.05722C1436.47114,240.3221,1462.11074,266.1389,1462.11074,297.7014Z" fill="#a8ba67"/><path d="M1405.14984,240.3221,994.24012,1285.4285h-5.1475c-31.32168,0-56.9506-25.8164-56.9506-57.3789V297.7014c0-31.5625,25.62892-57.3793,56.9506-57.3793Z" fill="#bbce84"/><path d="M1110.18154,219.364h173.8897a25.7534,25.7534,0,0,1,25.7534,25.7534v4.0488a25.754,25.754,0,0,1-25.754,25.754H1110.181a25.7529,25.7529,0,0,1-25.7529-25.7529v-4.0499A25.7534,25.7534,0,0,1,1110.18154,219.364Z" fill="#3f3f3f"/><path d="M1418.45635,740.51215a58.10026,58.10026,0,1,1-58.10009-58.10039A57.8094,57.8094,0,0,1,1418.45635,740.51215Z" fill="#fff"/><text transform="translate(1343.33871 761.05225)" font-size="57.14732" fill="#7c7c7c" font-family="Roboto-Medium, Roboto" font-weight="500">3</text><path d="M1094.0401,740.51215a58.10027,58.10027,0,1,1-58.1001-58.10039A57.8094,57.8094,0,0,1,1094.0401,740.51215Z" fill="#fff"/><text transform="translate(1018.92295 761.05225)" font-size="57.14732" fill="#7c7c7c" font-family="Roboto-Medium, Roboto" font-weight="500">1</text><path d="M1255.1692,740.51215a58.10027,58.10027,0,1,1-58.1001-58.10039A57.8094,57.8094,0,0,1,1255.1692,740.51215Z" fill="#fff"/><text transform="translate(1180.05176 761.05225)" font-size="57.14732" fill="#7c7c7c" font-family="Roboto-Medium, Roboto" font-weight="500">2</text><path d="M1418.45635,902.51215a58.10026,58.10026,0,1,1-58.10009-58.10039A57.8094,57.8094,0,0,1,1418.45635,902.51215Z" fill="#fff"/><text transform="translate(1343.33871 923.05225)" font-size="57.14732" fill="#7c7c7c" font-family="Roboto-Medium, Roboto" font-weight="500">7</text><path d="M1094.0401,902.51215a58.10027,58.10027,0,1,1-58.1001-58.10039A57.8094,57.8094,0,0,1,1094.0401,902.51215Z" fill="#fff"/><text transform="translate(1018.92295 923.05225)" font-size="57.14732" fill="#7c7c7c" font-family="Roboto-Medium, Roboto" font-weight="500">5</text><path d="M1255.1692,902.51215a58.10027,58.10027,0,1,1-58.1001-58.10039A57.8094,57.8094,0,0,1,1255.1692,902.51215Z" fill="#fff"/><text transform="translate(1180.05176 923.05225)" font-size="57.14732" fill="#7c7c7c" font-family="Roboto-Medium, Roboto" font-weight="500">6</text><path d="M1418.45635,1082.45572a58.10026,58.10026,0,1,1-58.10009-58.10038A57.8094,57.8094,0,0,1,1418.45635,1082.45572Z" fill="#fff"/><text transform="translate(1343.33871 1102.99582)" font-size="57.14732" fill="#7c7c7c" font-family="Roboto-Medium, Roboto" font-weight="500">0</text><path d="M1094.0401,1082.45572a58.10027,58.10027,0,1,1-58.1001-58.10038A57.8094,57.8094,0,0,1,1094.0401,1082.45572Z" fill="#fff"/><text transform="translate(1018.92295 1102.99582)" font-size="57.14732" fill="#7c7c7c" font-family="Roboto-Medium, Roboto" font-weight="500">8</text><path d="M1255.1692,1082.45572a58.10027,58.10027,0,1,1-58.1001-58.10038A57.8094,57.8094,0,0,1,1255.1692,1082.45572Z" fill="#fff"/><text transform="translate(1180.05176 1102.99582)" font-size="57.14732" fill="#7c7c7c" font-family="Roboto-Medium, Roboto" font-weight="500">9</text><path d="M1565.96424,736.2078l-11.4853,4.3643-77.2295,29.3486a49.18284,49.18284,0,0,1-5.4736,1.7349,52.751,52.751,0,0,1-62.3711-32.2203l-1.1319-2.9658a52.75555,52.75555,0,0,1,30.4844-67.8569l71.999-27.357,5.2305-1.9917,11.4853-4.3647a52.74289,52.74289,0,0,1,67.8438,30.4858l1.1328,2.9659A52.757,52.757,0,0,1,1565.96424,736.2078Z" fill="#ffb27d"/><path d="M1503.24744,737.9798c-12.8886,4.8842-36.2236,13.5517-48.7031,15.3447-3.5293.5083-10.0371-1.4116-16.1064-8.061-3.6426-3.9805-7.1289-9.6553-9.7129-17.5186a55.71972,55.71972,0,0,1-2.6397-11.1802,47.1943,47.1943,0,0,1,.4239-13.2983,13.27559,13.27559,0,0,1,7.3681-9.4863c.0147-.0142.043-.0142.0576-.0284,13.2696-6.3378,31.1543-14.06,46.8389-18.3657,10.8408-2.9927,21.8096,1.793,25.2402,11.2793l1.6231,4.4326,8.2871,22.6997C1519.35394,723.2273,1513.77774,734.013,1503.24744,737.9798Z" fill="#ffd3b6"/><path d="M1503.24744,737.9798c-12.8886,4.8842-36.2236,13.5517-48.7031,15.3447-3.5293.5083-10.0371-1.4116-16.1064-8.061-.6495-1.5103-1.2422-3.1055-1.8077-4.8135a55.71608,55.71608,0,0,1-2.6396-11.1807,47.19434,47.19434,0,0,1,.4238-13.2978,13.27607,13.27607,0,0,1,7.3682-9.4864c.0146-.0141.043-.0141.0566-.0283,13.2696-6.3384,31.1563-14.06,46.8399-18.3657a22.20445,22.20445,0,0,1,18.958,3.0068l8.2871,22.6997C1519.35394,723.2273,1513.77774,734.013,1503.24744,737.9798Z" fill="#ffc197"/><path d="M1530.91934,844.7864l-59.5557,16.2144a34.20146,34.20146,0,0,1-41.8613-23.9458l-1.8349-6.7412a34.19987,34.19987,0,0,1,23.9453-41.8614l59.5556-16.2138a34.20061,34.20061,0,0,1,41.8614,23.9453l1.8359,6.7412A34.20112,34.20112,0,0,1,1530.91934,844.7864Z" fill="#ffb27d"/><path d="M1498.71624,841.864c-10.9414,2.9224-30.7178,8.0752-41.0801,8.6397-3.7695.2119-11.3213-2.9785-16.248-12.8887a45.0565,45.0565,0,0,1-4.376-17.1518,34.08619,34.08619,0,0,1,1.3271-10.1919,10.54974,10.54974,0,0,1,6.7334-6.8042c.0283-.0142.042-.0142.0567-.0283,11.3496-4.0093,26.5947-8.795,39.7802-11.0957,9.1055-1.5953,17.7452,2.7807,19.877,10.291l1.5381,5.3642,4.5879,16.1074C1513.02974,831.5589,1507.65174,839.4925,1498.71624,841.864Z" fill="#ffd3b6"/><path d="M1498.71624,841.864c-10.9414,2.9224-30.7178,8.0752-41.0801,8.6397-3.7695.2119-11.3213-2.9785-16.248-12.8887a37.95953,37.95953,0,0,1-1.2002-8.2158,34.17523,34.17523,0,0,1,1.3271-10.1924,10.5831,10.5831,0,0,1,6.7334-6.8042c.0283-.0141.043-.0141.0566-.0278,11.3497-4.0098,26.5958-8.7949,39.7813-11.082,7.5381-1.3272,14.7656,1.4541,18.2383,6.7055l4.5879,16.1074C1513.02974,831.5589,1507.65174,839.4925,1498.71624,841.864Z" fill="#ffc197"/><path d="M555.288,1529.8211s122.5864,117.4082,205.22459,162.7402l62.56832-44.3789v65.4668s123.05128,21.7607,161.86478,0V1535.118L639.32753,1361.8582Z" fill="#475b10"/><path d="M1011.05412,1699.4422c-47.6094,9.7627-150.2227-27.6367-150.2227-27.6367l16.5503-159.8614L761.42712,1644.742c-59.0097-21.959-151.29979-79.2637-206.13518-114.9229-27.30031-17.7627-45.32081-30.1504-45.32081-30.1504,77.3784-124.5156,155.2163-240.9756,155.2163-240.9756,22.84519,45.7022,76.91789,85.3897,135.53459,117.1329,97.4073,52.7597,207.3584,83.583,207.3584,83.583C1008.04722,1554.4148,1011.05412,1699.4422,1011.05412,1699.4422Z" fill="#bbce84"/><path d="M1564.08534,622.0677c-.4238.1547-.8476.2963-1.2851.4375l-78.0791,20.0454c-34.3321,8.8232-69.835-9.7544-78.8985-41.2769l-4.6445-16.1499c-8.71-30.2661,10.0088-61.9155,41.9131-72.1782l25.7773-6.6206,52.3018-13.4253c34.332-8.8228,69.8349,9.7549,78.8974,41.2773l4.6446,16.1494C1613.29534,580.1834,1595.19764,611.367,1564.08534,622.0677Z" fill="#ffb27d"/><path d="M1528.30414,600.2713l-37.9317,17.0952c-.0556.0141-.1269.0283-.2392.0566a40.687,40.687,0,0,1-4.5879.9458c-.6358.0987-1.2852.1695-1.9209.2398a5.07645,5.07645,0,0,1-.8037.0141,6.03386,6.03386,0,0,1-5.2373-8.5263,37.72637,37.72637,0,0,0,2.1455-25.7207l-.9033-3.3033a.27125.27125,0,0,0-.0284-.0991l-2.9365-10.7705a40.38807,40.38807,0,0,0-13.75-20.9634c-.7754-.6352-1.581-1.228-2.3994-1.7929-7.4961-5.1949-5.5898-16.9541,3.1904-19.3965.085-.0278.1553-.042.2403-.0703l41.6298-6.2964c10.2911-2.7949,20.2012,5.1245,23.0108,15.4155l3.3447,12.2676,7.1152,26.1582C1541.03754,585.8299,1538.59514,597.4764,1528.30414,600.2713Z" fill="#ffd3b6"/><path d="M1528.30414,600.2713l-37.9317,17.0952c-.0556.0141-.1269.0283-.2392.0566-.8897.1695-3.6709.6353-7.3125,1.1997a6.03386,6.03386,0,0,1-5.2373-8.5263,37.72637,37.72637,0,0,0,2.1455-25.7207l-.9033-3.3033a.27125.27125,0,0,0-.0284-.0991l-2.9365-10.7705a40.38807,40.38807,0,0,0-13.75-20.9634,10.5803,10.5803,0,0,1,5.9717-4.2495c.0713-.0278.1553-.042.2402-.0703l41.6299-6.2959c8.668-2.3574,17.0527,2.8941,21.1748,10.7427l7.1152,26.1582C1541.03754,585.8299,1538.59514,597.4764,1528.30414,600.2713Z" fill="#ffc197"/><path d="M902.97742,1028.201s-17.0337-148.6949-32.74948-177.6846c-15.71582-29.0015-29.01372-87.065-4.83542-130.2109,24.1782-43.1578,32.5317-126.1734,32.5317-126.1734,9.3808,94.7661-18.8228,165.1123.9551,183.7417.7373.689,2.103.3623,4.03762-.8706Z" fill="#efa26f"/><path d="M2094.16154,1966.1785h-460.0606c-22.0595-14.79-136.6298-92.9395-184.04-151.2002-10.04-12.3496-46.79-118.75-75.0293-205.1396-17.6299-53.96-31.9502-100.1407-34.3701-110.7305-.8398-3.6895-1.4004-11-1.7402-20.8994v-.1006c-1.2002-35.3301.4394-103.46,2.1298-157.5801l.0098-.25.0303-.71c.0801-2.3798.1504-4.7197.2305-7.04v-.0801c.0097-.2295.0097-.4697.0195-.6992.3105-9.4004.6103-18.2598.8896-26.3203.71-20.1396,1.3106-35.29,1.5606-41.2197l.0996-2.7608a.03177.03177,0,0,0,.0205-.0097c.7295-.4102,22.8594-12.2198,52.4394,9.0898,7.1407,5.1504,13.7403,17.5899,19.7598,33.8203,3.8506,10.3604,7.461,22.2598,10.8203,34.7998,12.9199,48.2305,22.1905,105.8907,27.1407,121.3301,7.9794,24.9502,102.039,134.6699,107.9199,141.4902.0898.1202.1894.2295.2793.3399V1409.0389l-71.0098-190-29.1504-78-14.6494-39.2002a706.83006,706.83006,0,0,1-41.3203-81.2706c-8.25-19.4199-15.8096-40.2695-20.4893-60.0898-1.1201-4.7197-2.0703-9.3896-2.83-13.96v-.02c-2.7706-16.75-2.961-32.29.8896-44.9399,6.8701-22.5298,22.3496-26.77,34.2402-26.3101,1.2295.0401,2.42.1499,3.5694.2803a24.32972,24.32972,0,0,1,3.4199.6597,23.82052,23.82052,0,0,1,5.9101,2.4599c.0206,0,.0206.0103.0303.0205a23.95563,23.95563,0,0,1,7.7197,7.2198s10.0401,13.1098,23.5098,30.7299c8.8604,11.6001,19.211,25.1499,29.1504,38.21,17.7002,23.27,34.1406,44.98,38.6602,51.3403,24.4296,34.3897,90.2099,146.46,90.2099,146.46l77,3.2295a51.07334,51.07334,0,0,1,32.7295,13.7002c27.3809,25.5703,86.4102,80.9004,93.6504,89.1299,0,2.6972,45.875,24.7558,81.3106,44.4004,25.3486,10.7109,73.5,48.6699,73.5,48.6699,9.9794,8.8095,17.58,17.5801,21.4296,25.9599,16.5098,35.9297,61.2901,348.42,82.7002,502.8995C2089.34124,1930.2781,2093.81094,1963.6082,2094.16154,1966.1785Z" fill="#ffb27d"/><path d="M1620.13424,1152.6238s71.333,116.4404,80.7734,121.6856c9.4414,5.2451,46.1572,12.5879,50.3535,0C1755.45644,1261.7215,1620.13424,1152.6238,1620.13424,1152.6238Z" fill="#efa26f"/><path d="M1978.681,1352.0799c-.1211-.1065-.2383-.2139-.3593-.3213,0,0-48.1514-37.959-73.5-48.6699-32.5342-18.0362-73.8624-38.1045-80.4131-43.3575,7.5537,8.6338,60.6777,68.7549,81.1201,73.2598C1923.48084,1336.949,1964.25434,1348.1004,1978.681,1352.0799Z" fill="#efa26f"/><path d="M1562.27094,1582.3103V1409.034s41.1631,68.8574,44.3095,106.622C1609.72794,1553.4099,1589.48184,1614.5467,1562.27094,1582.3103Z" fill="#efa26f"/><path d="M1412.92034,946.4705c-6.0215-10.3198-16.7969-29.0332-20.5029-39.5015-1.0489-2.9599-.9161-8.8813,2.7226-15.1919a34.29234,34.29234,0,0,1,10.7998-11.2109,35.83142,35.83142,0,0,1,7.5801-4.0869,29.43322,29.43322,0,0,1,9.7021-1.7896,10.29445,10.29445,0,0,1,8.2862,4.8164c.0127.0098.0185.0342.0312.044,7.1475,10.4131,16.1865,24.582,22.3291,37.4057,4.2588,8.8619,2.9141,19.0933-3.2881,23.5874l-2.8935,2.1177-14.8233,10.8213C1426.70254,957.9671,1417.82364,954.907,1412.92034,946.4705Z" fill="#ffd3b6"/><path d="M1412.92034,946.4705c-6.0215-10.3198-16.7969-29.0332-20.5029-39.5015-1.0489-2.9599-.9161-8.8813,2.7226-15.1919.9668-.8047,2.0068-1.5742,3.1338-2.3374a35.84938,35.84938,0,0,1,7.5791-4.0874,29.45346,29.45346,0,0,1,9.7031-1.789,10.29384,10.29384,0,0,1,8.2862,4.8159c.0127.0102.0185.0347.0312.0444,7.1475,10.4131,16.1865,24.582,22.3291,37.4053,2.7305,5.6767,3.1602,11.9072,1.4844,16.832l-14.8233,10.8213C1426.70254,957.9671,1417.82364,954.907,1412.92034,946.4705Z" fill="#ffc197"/><path d="M1718.23864,330.6541h96.4395a46.1289,46.1289,0,0,1,46.1289,46.1289v79.44a46.1279,46.1279,0,0,1-46.1279,46.1279h-96.4405a46.1279,46.1279,0,0,1-46.1279-46.1279V376.782A46.1279,46.1279,0,0,1,1718.23864,330.6541Z" fill="#efefef"/><path d="M1716.31384,415.094c5.2422,13.814,50.1739,50.0913,50.1739,50.0913s14.6445-11.8979,28.208-24.7124c10.1513-9.4848,19.6367-19.4712,21.8838-25.3789,5.3242-13.7285-.334-33.3662-19.9707-36.6938-19.5528-3.3296-30.1211,17.1416-30.1211,17.1416s-10.5674-20.4712-30.2041-17.1416a26.70518,26.70518,0,0,0-8.9864,3.1631C1715.06584,388.3846,1711.98674,403.7791,1716.31384,415.094Z" fill="#afafaf"/><path d="M263.80164,949.5149H552.71723a41.99753,41.99753,0,0,1,41.874,41.8745v126.752a38.57507,38.57507,0,0,1-38.4624,38.4619h-7.42189l13.92039,58.793-87.3906-58.793H261.308a41.96127,41.96127,0,0,1-41.8384-41.8389V993.8465A44.46231,44.46231,0,0,1,263.80164,949.5149Z" fill="#efefef"/><path d="M256.04924,1041.5193H557.29873a7.48217,7.48217,0,0,0,7.46-7.4599h0a7.4824,7.4824,0,0,0-7.46-7.461H256.04924a7.48272,7.48272,0,0,0-7.46,7.461h0A7.48249,7.48249,0,0,0,256.04924,1041.5193Z" fill="#afafaf"/><path d="M256.04924,1074.9129H557.29873a7.4824,7.4824,0,0,0,7.46-7.461h0a7.48217,7.48217,0,0,0-7.46-7.4599H256.04924a7.48249,7.48249,0,0,0-7.46,7.4599h0A7.48272,7.48272,0,0,0,256.04924,1074.9129Z" fill="#afafaf"/><path d="M256.04924,1108.3055H557.29873a7.48225,7.48225,0,0,0,7.46-7.46h0a7.48161,7.48161,0,0,0-7.46-7.46H256.04924a7.48193,7.48193,0,0,0-7.46,7.46h0A7.48258,7.48258,0,0,0,256.04924,1108.3055Z" fill="#afafaf"/><path d="M420.17323,989.6531h127.8892a8.90657,8.90657,0,0,0,8.8808-8.8808h0a8.90659,8.90659,0,0,0-8.8808-8.8809H420.17323a8.90686,8.90686,0,0,0-8.8808,8.8809h0A8.90684,8.90684,0,0,0,420.17323,989.6531Z" fill="#afafaf"/><rect x="303.24743" y="971.8914" width="90.9932" height="17.7617" rx="7.0195" transform="translate(697.48807 1961.5445) rotate(180)" fill="#afafaf"/><polygon points="1715.497 1013.801 1897.212 1073.212 1788.363 967.12 1777.313 993.041 1730.538 993.268 1715.497 1013.801" fill="#afafaf"/><polygon points="1897.212 1073.212 1756.181 965.925 1605.5 931.508 1897.212 1073.212" fill="#efefef"/><polygon points="1788.363 967.12 1897.212 1073.212 1824.658 924.583 1788.363 967.12" fill="#efefef"/><polygon points="643.953 336.833 474.1 361.062 586.816 284.235 592.548 308.864 633.854 316.345 643.953 336.833" fill="#afafaf"/><polygon points="474.1 361.062 615.445 288.187 753.978 281.219 474.1 361.062" fill="#efefef"/><polygon points="586.816 284.235 474.1 361.062 561.357 240.992 586.816 284.235" fill="#efefef"/><path d="M1012.37242,298.5198l-5.9292,4.2544-5.9594-4.2085a7.29761,7.29761,0,0,1,11.8886-.0459Z" fill="#fff"/><path d="M1006.44132,285.1087a17.61409,17.61409,0,0,0-14.42038,7.5l3.76018,2.6396a13.03666,13.03666,0,0,1,21.2603-.0796l3.75-2.6904A17.63818,17.63818,0,0,0,1006.44132,285.1087Z" fill="#fff"/><path d="M1006.44132,265.3987a37.27873,37.27873,0,0,0-30.52,15.8599l3.77,2.6401a32.71422,32.71422,0,0,1,53.36962-.2002l3.73048-2.6899A37.26341,37.26341,0,0,0,1006.44132,265.3987Z" fill="#fff"/><path d="M1006.44132,276.1883a26.67427,26.67427,0,0,0-21.7603,11.2402l3.7603,2.6401a22.12087,22.12087,0,0,1,35.90962-.1401l3.73048-2.6699A26.65073,26.65073,0,0,0,1006.44132,276.1883Z" fill="#fff"/><path d="M1863.02094,1895.0281l-137.4297,71.1504h-91.4903c-22.0595-14.79-136.6298-92.9395-184.04-151.2002-10.04-12.3496-46.79-118.75-75.0293-205.1396v-.0401c3.75,11.4697,82.5596,179.3194,105,198.3994,22.4395,19.0703,140.2598,130.1602,172.7998,129.0303,31.5195-1.0801,199.3203-39.7002,209.7197-42.0898C1862.71134,1895.1082,1862.86074,1895.0681,1863.02094,1895.0281Z" fill="#efa26f"/><path d="M2139.54144,1966.1785h-495.46c24.8496-9.75,119.9199-46.0703,218.4697-71.04.1602-.0303.3096-.0704.4698-.1104,84.6406-21.4101,171.7705-34.3896,219.0898-14.9199l.3408.5098Z" fill="#698528"/><path d="M1341.33534,1311.7449a.03834.03834,0,0,0,.0332-.0117c8.3487-3.0625,20.0742-5.082,25.7744,4.4443,8.876,14.8223-24.1015,145.5772-28.2197,162.0264Z" fill="#efa26f"/><path d="M1343.89394,1241.4402l-2.8349,79.0889s16.6298,2.706,26.0859-4.3516C1376.60094,1309.1199,1371.59414,1240.5115,1343.89394,1241.4402Z" fill="#ffc197"/><path d="M1011.05412,1699.4422c-47.6094,9.7627-150.2227-27.6367-150.2227-27.6367l16.5503-159.8614L761.42712,1644.742c-59.0097-21.959-151.29979-79.2637-206.13518-114.9229C695.80852,1514.5027,800.722,1375.826,800.722,1375.826c97.4073,52.7597,207.3584,83.583,207.3584,83.583C1008.04722,1554.4148,1011.05412,1699.4422,1011.05412,1699.4422Z" fill="#a8ba67"/><path d="M684.33922,1554.241a19.30062,19.30062,0,1,1,19.1216,19.4775A19.30134,19.30134,0,0,1,684.33922,1554.241Z" fill="#475b10"/></svg>