<svg id="a2ad437b-608f-495e-87d7-e5e155eba88e" data-name="Слой 1" xmlns="http://www.w3.org/2000/svg" viewBox="0 0 2300 2000"><path d="M1344.5117,991.9063s-95.7451,191.539-193.001,323.7568c-38.6972,52.623-77.6357,95.8418-110.8686,113.8662-32.5313,17.6377-60.07032,45.0439-82.85842,75.4111-59.0186,78.627-86.2549,177.0684-86.2549,177.0684L622.833,1305.7617s8.48628-367.7846,38.34668-429.3056c43.5205-89.6524,64.543-270.7945,81.2622-306.856,12.4033-26.7529,47.8242-164.9429,51.2212-175.0977,1.4751-4.3759,13.2617-11.0854,28.5664-11.0732,12.2827,0,33.1362,11.8711,38.395,36.2671,26.5957,123.3081-5.416,204.6431-5.0532,208.2573,9.3808,94.7661-18.8228,165.1123.9551,183.7417.7373.689,2.103.3623,4.03762-.8706,34.28458-22.0142,247.0756-332.2427,273.2846-338.9404C1161.5322,464.8242,1344.5117,991.9063,1344.5117,991.9063Z" fill="#ffb27d"/><path d="M946.34768,1607.5469s-3.3868,167.1972-13.0831,392.3847H305.95119c143.3926-305.7802,268.0547-563.1455,268.0547-563.1455S931.19088,1447.6953,946.34768,1607.5469Z" fill="#698528"/><path d="M1561.9492,343.6714l-77.0156,112.9018-75.5723,110.7969c-4.6074,5.5601-9.9414,7.4927-15.7129,6.9365-18.1347-1.7207-40.5722-27.8779-58.0595-42.3593l-1.7735-1.4561a54.55262,54.55262,0,0,1-7.2412-76.5918L1442.084,314.271v-.0132l34.2588-41.4067a54.55243,54.55243,0,0,1,76.5918-7.2407l1.7734,1.456A54.56732,54.56732,0,0,1,1561.9492,343.6714Z" fill="#ffb27d"/><path d="M1484.9336,456.5732l-75.5723,110.7969c-4.6074,5.5601-9.9414,7.4927-15.7129,6.9365L1442.084,314.271C1442.1895,315.7271,1450.4238,432.4019,1484.9336,456.5732Z" fill="#efa26f"/><path d="M1151.5107,1315.6631c-38.6972,52.623-77.6357,95.8418-110.8686,113.8662-32.5313,17.6377-60.07032,45.0439-82.85842,75.4111-26.2114-12.2177-56.0894-26.5537-85.294-40.748-35.5629-17.2842-36.9272-67.7813-2.09468-86.4942q.51057-.2739,1.00048-.5546c32.6406-18.6778,66.0869-84.6231,66.0869-84.6231Z" fill="#efa26f"/><path d="M791.93068,400.2236l-20.1504,81.3521s17.6152,7.2065,28.9282,1.6108S821.252,404.6035,791.93068,400.2236Z" fill="#ffc197"/><path d="M938.1192,246.6953H1371.421a77.49208,77.49208,0,0,1,77.49208,77.49208V1276.6123a77.4922,77.4922,0,0,1-77.4922,77.4922H938.1192a77.4922,77.4922,0,0,1-77.4922-77.4922V324.1875A77.4922,77.4922,0,0,1,938.1192,246.6953Z" fill="#3e3e3e"/><path d="M1419.7578,331.5229v930.3482c0,31.5625-25.6396,57.3789-56.9609,57.3789H946.73968c-31.32168,0-56.9506-25.8164-56.9506-57.3789V331.5229c0-31.5625,25.62892-57.3793,56.9506-57.3793H1362.7969C1394.1182,274.1436,1419.7578,299.9604,1419.7578,331.5229Z" fill="#a8b967"/><path d="M1362.7969,274.1436,951.88718,1319.25h-5.1475c-31.32168,0-56.9506-25.8164-56.9506-57.3789V331.5229c0-31.5625,25.62892-57.3793,56.9506-57.3793Z" fill="#bace84"/><path d="M1067.8286,253.1855h173.8897a25.7534,25.7534,0,0,1,25.7534,25.7534v4.0488a25.754,25.754,0,0,1-25.754,25.754H1067.8281a25.7529,25.7529,0,0,1-25.7529-25.7529v-4.0499a25.7534,25.7534,0,0,1,25.7534-25.7534Z" fill="#3e3e3e"/><path d="M1523.6113,770.0293l-11.4853,4.3643-77.2295,29.3486a49.18284,49.18284,0,0,1-5.4736,1.7349,52.751,52.751,0,0,1-62.3711-32.2203l-1.1319-2.9658a52.75555,52.75555,0,0,1,30.4844-67.8569l71.999-27.357,5.2305-1.9917,11.4853-4.3647a52.74289,52.74289,0,0,1,67.8438,30.4858l1.1328,2.9659A52.757,52.757,0,0,1,1523.6113,770.0293Z" fill="#ffb27d"/><path d="M1460.8945,771.8013c-12.8886,4.8842-36.2236,13.5517-48.7031,15.3447-3.5293.5083-10.0371-1.4116-16.1064-8.061-3.6426-3.9805-7.1289-9.6553-9.7129-17.5186a55.71972,55.71972,0,0,1-2.6397-11.1802,47.1943,47.1943,0,0,1,.4239-13.2983,13.27559,13.27559,0,0,1,7.3681-9.4863c.0147-.0142.043-.0142.0576-.0284,13.2696-6.3378,31.1543-14.06,46.8389-18.3657,10.8408-2.9927,21.8096,1.793,25.2402,11.2793l1.6231,4.4326,8.2871,22.6997C1477.001,757.0488,1471.4248,767.8345,1460.8945,771.8013Z" fill="#ffd3b6"/><path d="M1460.8945,771.8013c-12.8886,4.8842-36.2236,13.5517-48.7031,15.3447-3.5293.5083-10.0371-1.4116-16.1064-8.061-.6495-1.5103-1.2422-3.1055-1.8077-4.8135a55.71608,55.71608,0,0,1-2.6396-11.1807,47.19434,47.19434,0,0,1,.4238-13.2978,13.27607,13.27607,0,0,1,7.3682-9.4864c.0146-.0141.043-.0141.0566-.0283,13.2696-6.3384,31.1563-14.06,46.8399-18.3657a22.20445,22.20445,0,0,1,18.958,3.0068l8.2871,22.6997C1477.001,757.0488,1471.4248,767.8345,1460.8945,771.8013Z" fill="#ffc197"/><path d="M1488.5664,878.6079l-59.5557,16.2144a34.20146,34.20146,0,0,1-41.8613-23.9458l-1.8349-6.7412a34.19987,34.19987,0,0,1,23.9453-41.8614l59.5556-16.2138a34.20061,34.20061,0,0,1,41.8614,23.9453l1.8359,6.7412A34.20112,34.20112,0,0,1,1488.5664,878.6079Z" fill="#ffb27d"/><path d="M1456.3633,875.6855c-10.9414,2.9224-30.7178,8.0752-41.0801,8.6397-3.7695.2119-11.3213-2.9785-16.248-12.8887a45.0565,45.0565,0,0,1-4.376-17.1518,34.08619,34.08619,0,0,1,1.3271-10.1919,10.54974,10.54974,0,0,1,6.7334-6.8042c.0283-.0142.042-.0142.0567-.0283,11.3496-4.0093,26.5947-8.795,39.7802-11.0957,9.1055-1.5953,17.7452,2.7807,19.877,10.291l1.5381,5.3642,4.5879,16.1074C1470.6768,865.3804,1465.2988,873.314,1456.3633,875.6855Z" fill="#ffd3b6"/><path d="M1456.3633,875.6855c-10.9414,2.9224-30.7178,8.0752-41.0801,8.6397-3.7695.2119-11.3213-2.9785-16.248-12.8887a37.95953,37.95953,0,0,1-1.2002-8.2158,34.17523,34.17523,0,0,1,1.3271-10.1924,10.5831,10.5831,0,0,1,6.7334-6.8042c.0283-.0141.043-.0141.0566-.0278,11.3497-4.0098,26.5958-8.7949,39.7813-11.082,7.5381-1.3272,14.7656,1.4541,18.2383,6.7055l4.5879,16.1074C1470.6768,865.3804,1465.2988,873.314,1456.3633,875.6855Z" fill="#ffc197"/><path d="M512.93509,1563.6426s122.58639,117.4082,205.22459,162.7402l62.56832-44.3789v65.4668s123.05128,21.7607,161.86478,0V1568.9395l-345.6182-173.2598Z" fill="#465b10"/><path d="M968.70118,1733.2637c-47.6094,9.7627-150.2227-27.6367-150.2227-27.6367l16.5503-159.8614-115.9546,132.7979c-59.0097-21.959-151.29979-79.2637-206.13518-114.9229-27.30031-17.7627-45.32081-30.1504-45.32081-30.1504,77.3784-124.5156,155.21629-240.9756,155.21629-240.9756,22.8452,45.7022,76.9179,85.3897,135.5346,117.1329,97.4073,52.7597,207.3584,83.583,207.3584,83.583C965.69428,1588.2363,968.70118,1733.2637,968.70118,1733.2637Z" fill="#bace84"/><path d="M1521.7324,655.8892c-.4238.1547-.8476.2963-1.2851.4375l-78.0791,20.0454c-34.3321,8.8232-69.835-9.7544-78.8985-41.2769l-4.6445-16.1499c-8.71-30.2661,10.0088-61.9155,41.9131-72.1782l25.7773-6.6206,52.3018-13.4253c34.332-8.8228,69.8349,9.7549,78.8974,41.2773l4.6446,16.1494C1570.9424,614.0049,1552.8447,645.1885,1521.7324,655.8892Z" fill="#ffb27d"/><path d="M1485.9512,634.0928l-37.9317,17.0952c-.0556.0141-.1269.0283-.2392.0566a40.687,40.687,0,0,1-4.5879.9458c-.6358.0987-1.2852.1695-1.9209.2398a5.07645,5.07645,0,0,1-.8037.0141,6.03386,6.03386,0,0,1-5.2373-8.5263,37.72637,37.72637,0,0,0,2.1455-25.7207l-.9033-3.3033a.27125.27125,0,0,0-.0284-.0991l-2.9365-10.7705a40.38807,40.38807,0,0,0-13.75-20.9634c-.7754-.6352-1.581-1.228-2.3994-1.7929-7.4961-5.1949-5.5898-16.9541,3.1904-19.3965.085-.0278.1553-.042.2403-.0703l41.6298-6.2964c10.2911-2.7949,20.2012,5.1245,23.0108,15.4155l3.3447,12.2676,7.1152,26.1582C1498.6846,619.6514,1496.2422,631.2979,1485.9512,634.0928Z" fill="#ffd3b6"/><path d="M1485.9512,634.0928l-37.9317,17.0952c-.0556.0141-.1269.0283-.2392.0566-.8897.1695-3.6709.6353-7.3125,1.1997a6.03386,6.03386,0,0,1-5.2373-8.5263,37.72637,37.72637,0,0,0,2.1455-25.7207l-.9033-3.3033a.27125.27125,0,0,0-.0284-.0991l-2.9365-10.7705a40.38807,40.38807,0,0,0-13.75-20.9634,10.5803,10.5803,0,0,1,5.9717-4.2495c.0713-.0278.1553-.042.2402-.0703l41.6299-6.2959c8.668-2.3574,17.0527,2.8941,21.1748,10.7427l7.1152,26.1582C1498.6846,619.6514,1496.2422,631.2979,1485.9512,634.0928Z" fill="#ffc197"/><path d="M860.62448,1062.0225S843.59078,913.3276,827.875,884.3379c-15.71582-29.0015-29.01372-87.065-4.83542-130.2109,24.1782-43.1578,32.5317-126.1734,32.5317-126.1734,9.3808,94.7661-18.8228,165.1123.9551,183.7417.7373.689,2.103.3623,4.03762-.8706Z" fill="#efa26f"/><path d="M649.52248,508.5522H1241.082a37.1836,37.1836,0,0,1,37.1836,37.1836V782.6567a37.1836,37.1836,0,0,1-37.1836,37.1836H649.52288a37.184,37.184,0,0,1-37.184-37.184V545.7358A37.1836,37.1836,0,0,1,649.52248,508.5522Z" fill="#698528"/><path d="M968.12988,1116.2773H1235.0742a37.2471,37.2471,0,0,1,37.2471,37.2471v56.4297a37.2461,37.2461,0,0,1-37.2461,37.2461H968.13088a37.2471,37.2471,0,0,1-37.2471-37.2471v-56.4297a37.2461,37.2461,0,0,1,37.2461-37.2461Z" fill="#9abff6"/><path d="M1086.6373,874.0947h252.1879a44.625,44.625,0,0,1,44.625,44.625v98.6778a44.625,44.625,0,0,1-44.625,44.625h-252.188a44.624,44.624,0,0,1-44.624-44.624V918.7188A44.6241,44.6241,0,0,1,1086.6373,874.0947Z" fill="#f99746"/><path d="M2051.8086,2000H1591.748c-22.0595-14.79-136.6298-92.9395-184.04-151.2002-10.04-12.3496-46.79-118.75-75.0293-205.1396-17.6299-53.96-31.9502-100.1407-34.3701-110.7305-.8398-3.6895-1.4004-11-1.7402-20.8994v-.1006c-1.2002-35.3301.4394-103.46,2.1298-157.5801l.0098-.25.0303-.71c.0801-2.3798.1504-4.7197.2305-7.04v-.0801c.0097-.2295.0097-.4697.0195-.6992.3105-9.4004.6103-18.2598.8896-26.3203.71-20.1396,1.3106-35.29,1.5606-41.2197l.0996-2.7608a.03177.03177,0,0,0,.0205-.0097c.7295-.4102,22.8594-12.2198,52.4394,9.0898,7.1407,5.1504,13.7403,17.5899,19.7598,33.8203,3.8506,10.3604,7.461,22.2598,10.8203,34.7998,12.9199,48.2305,22.1905,105.8907,27.1407,121.3301,7.9794,24.9502,102.039,134.6699,107.9199,141.4902.0898.1202.1894.2295.2793.3399V1442.8604l-71.0098-190-29.1504-78-14.6494-39.2002a706.83006,706.83006,0,0,1-41.3203-81.2706c-8.25-19.4199-15.8096-40.2695-20.4893-60.0898-1.1201-4.7197-2.0703-9.3896-2.83-13.96v-.02c-2.7706-16.75-2.961-32.29.8896-44.9399,6.8701-22.5298,22.3496-26.77,34.2402-26.3101,1.2295.0401,2.42.1499,3.5694.2803a24.32972,24.32972,0,0,1,3.4199.6597,23.82052,23.82052,0,0,1,5.9101,2.4599c.0206,0,.0206.0103.0303.0205a23.95563,23.95563,0,0,1,7.7197,7.2198s10.0401,13.1098,23.5098,30.7299c8.8604,11.6001,19.211,25.1499,29.1504,38.21,17.7002,23.27,34.1406,44.98,38.6602,51.3403,24.4296,34.3897,90.2099,146.46,90.2099,146.46l77,3.2295a51.07334,51.07334,0,0,1,32.7295,13.7002c27.3809,25.5703,86.4102,80.9004,93.6504,89.1299,0,2.6972,45.875,24.7558,81.3106,44.4004,25.3486,10.7109,73.5,48.6699,73.5,48.6699,9.9794,8.8095,17.58,17.5801,21.4296,25.9599,16.5098,35.9297,61.2901,348.42,82.7002,502.8995C2046.9883,1964.0996,2051.458,1997.4297,2051.8086,2000Z" fill="#ffb27d"/><path d="M1577.7813,1186.4453s71.333,116.4404,80.7734,121.6856c9.4414,5.2451,46.1572,12.5879,50.3535,0C1713.1035,1295.543,1577.7813,1186.4453,1577.7813,1186.4453Z" fill="#efa26f"/><path d="M1936.3281,1385.9014c-.1211-.1065-.2383-.2139-.3593-.3213,0,0-48.1514-37.959-73.5-48.6699-32.5342-18.0362-73.8624-38.1045-80.4131-43.3575,7.5537,8.6338,60.6777,68.7549,81.1201,73.2598C1881.1279,1370.7705,1921.9014,1381.9219,1936.3281,1385.9014Z" fill="#efa26f"/><path d="M1519.918,1616.1318V1442.8555s41.1631,68.8574,44.3095,106.622C1567.375,1587.2314,1547.1289,1648.3682,1519.918,1616.1318Z" fill="#efa26f"/><path d="M1370.5674,980.292c-6.0215-10.3198-16.7969-29.0332-20.5029-39.5015-1.0489-2.9599-.9161-8.8813,2.7226-15.1919a34.29234,34.29234,0,0,1,10.7998-11.2109,35.83142,35.83142,0,0,1,7.5801-4.0869,29.43322,29.43322,0,0,1,9.7021-1.7896,10.29445,10.29445,0,0,1,8.2862,4.8164c.0127.0098.0185.0342.0312.044,7.1475,10.4131,16.1865,24.582,22.3291,37.4057,4.2588,8.8619,2.9141,19.0933-3.2881,23.5874l-2.8935,2.1177-14.8233,10.8213C1384.3496,991.7886,1375.4707,988.7285,1370.5674,980.292Z" fill="#ffd3b6"/><path d="M1370.5674,980.292c-6.0215-10.3198-16.7969-29.0332-20.5029-39.5015-1.0489-2.9599-.9161-8.8813,2.7226-15.1919.9668-.8047,2.0068-1.5742,3.1338-2.3374a35.84938,35.84938,0,0,1,7.5791-4.0874,29.45346,29.45346,0,0,1,9.7031-1.789,10.29384,10.29384,0,0,1,8.2862,4.8159c.0127.0102.0185.0347.0312.0444,7.1475,10.4131,16.1865,24.582,22.3291,37.4053,2.7305,5.6767,3.1602,11.9072,1.4844,16.832l-14.8233,10.8213C1384.3496,991.7886,1375.4707,988.7285,1370.5674,980.292Z" fill="#ffc197"/><path d="M1675.8857,364.4756h96.4395a46.1289,46.1289,0,0,1,46.1289,46.1289v79.44a46.1279,46.1279,0,0,1-46.1279,46.1279h-96.4405a46.1279,46.1279,0,0,1-46.1279-46.1279v-79.441A46.1279,46.1279,0,0,1,1675.8857,364.4756Z" fill="#eee"/><path d="M1673.9609,448.9155c5.2422,13.814,50.1739,50.0913,50.1739,50.0913s14.6445-11.8979,28.208-24.7124c10.1513-9.4848,19.6367-19.4712,21.8838-25.3789,5.3242-13.7285-.334-33.3662-19.9707-36.6938-19.5528-3.3296-30.1211,17.1416-30.1211,17.1416s-10.5674-20.4712-30.2041-17.1416a26.70518,26.70518,0,0,0-8.9864,3.1631C1672.7129,422.2061,1669.6338,437.6006,1673.9609,448.9155Z" fill="#aeaeae"/><path d="M221.44869,983.3364h288.9156a41.99753,41.99753,0,0,1,41.874,41.8745v126.752a38.57507,38.57507,0,0,1-38.4624,38.4619H506.354l13.92039,58.793-87.3906-58.793H218.95509a41.96127,41.96127,0,0,1-41.83839-41.8389V1027.668A44.46231,44.46231,0,0,1,221.44869,983.3364Z" fill="#eee"/><path d="M213.69629,1075.3408h301.2495a7.48217,7.48217,0,0,0,7.46-7.4599h0a7.4824,7.4824,0,0,0-7.46-7.461H213.69629a7.48272,7.48272,0,0,0-7.46,7.461h0A7.48249,7.48249,0,0,0,213.69629,1075.3408Z" fill="#aeaeae"/><path d="M213.69629,1108.7344h301.2495a7.4824,7.4824,0,0,0,7.46-7.461h0a7.48217,7.48217,0,0,0-7.46-7.4599H213.69629a7.48249,7.48249,0,0,0-7.46,7.4599h0A7.48272,7.48272,0,0,0,213.69629,1108.7344Z" fill="#aeaeae"/><path d="M213.69629,1142.127h301.2495a7.48225,7.48225,0,0,0,7.46-7.46h0a7.48161,7.48161,0,0,0-7.46-7.46H213.69629a7.48193,7.48193,0,0,0-7.46,7.46h0A7.48258,7.48258,0,0,0,213.69629,1142.127Z" fill="#aeaeae"/><path d="M377.82029,1023.4746h127.8892a8.90657,8.90657,0,0,0,8.8808-8.8808h0a8.90659,8.90659,0,0,0-8.8808-8.8809H377.82029a8.90686,8.90686,0,0,0-8.8808,8.8809h0A8.90684,8.90684,0,0,0,377.82029,1023.4746Z" fill="#aeaeae"/><path d="M267.914,1005.7129h76.9537a7.02,7.02,0,0,1,7.02,7.02v3.7222a7.0195,7.0195,0,0,1-7.0195,7.0195h-76.9541a7.0196,7.0196,0,0,1-7.0196-7.0196v-3.7226A7.0195,7.0195,0,0,1,267.914,1005.7129Z" transform="translate(612.78218 2029.1875) rotate(180)" fill="#aeaeae"/><polygon points="1673.144 1047.622 1854.859 1107.033 1746.01 1000.941 1734.96 1026.862 1688.185 1027.09 1673.144 1047.622" fill="#aeaeae"/><polygon points="1854.859 1107.033 1713.828 999.746 1563.147 965.33 1854.859 1107.033" fill="#eee"/><polygon points="1746.01 1000.941 1854.859 1107.033 1782.305 958.405 1746.01 1000.941" fill="#eee"/><polygon points="601.6 370.654 431.747 394.883 544.463 318.057 550.195 342.685 591.501 350.167 601.6 370.654" fill="#aeaeae"/><polygon points="431.747 394.883 573.092 322.009 711.625 315.041 431.747 394.883" fill="#eee"/><polygon points="544.463 318.057 431.747 394.883 519.004 274.813 544.463 318.057" fill="#eee"/><path d="M868.27,652.4526a96.49,96.49,0,1,1-96.48972-96.4902A96.00693,96.00693,0,0,1,868.27,652.4526Z" fill="#fff"/><path d="M973.61128,1141.3037h77.92782a4.9121,4.9121,0,0,1,4.9121,4.9121v2.3428a4.9131,4.9131,0,0,1-4.9131,4.9131H973.61178a4.9126,4.9126,0,0,1-4.9126-4.9126v-2.3433A4.9121,4.9121,0,0,1,973.61128,1141.3037Z" fill="#699dee"/><path d="M1052.4829,1184.625H972.66408a3.97858,3.97858,0,0,1-3.9668-3.9668h0a3.97772,3.97772,0,0,1,3.9668-3.9658h79.81882a3.97772,3.97772,0,0,1,3.9668,3.9658h0A3.97858,3.97858,0,0,1,1052.4829,1184.625Z" fill="#699dee"/><path d="M971.73538,1195.4668H1017.148a3.0385,3.0385,0,0,1,3.0385,3.0385v1.856a3.0381,3.0381,0,0,1-3.0381,3.0381H971.73588a3.0386,3.0386,0,0,1-3.0386-3.0386v-1.8559A3.0381,3.0381,0,0,1,971.73538,1195.4668Z" fill="#699dee"/><path d="M1036.3198,1195.4668h73.3809a3.8115,3.8115,0,0,1,3.8115,3.8115v.3106a3.8105,3.8105,0,0,1-3.8105,3.8105h-73.3829a3.8105,3.8105,0,0,1-3.8105-3.8105v-.3106a3.8115,3.8115,0,0,1,3.8115-3.8115Z" fill="#699dee"/><path d="M1178.2617,1184.625H1073.6025a3.97864,3.97864,0,0,1-3.9668-3.9668h0a3.97779,3.97779,0,0,1,3.9668-3.9658h104.6592a3.97686,3.97686,0,0,1,3.9658,3.9658h0A3.97772,3.97772,0,0,1,1178.2617,1184.625Z" fill="#699dee"/><path d="M1052.4829,1222.1738H972.66408a3.97851,3.97851,0,0,1-3.9668-3.9668h0a3.97858,3.97858,0,0,1,3.9668-3.9668h79.81882a3.97858,3.97858,0,0,1,3.9668,3.9668h0A3.97851,3.97851,0,0,1,1052.4829,1222.1738Z" fill="#699dee"/><path d="M1178.2617,1222.1738H1073.6025a3.97858,3.97858,0,0,1-3.9668-3.9668h0a3.97864,3.97864,0,0,1,3.9668-3.9668h104.6592a3.97772,3.97772,0,0,1,3.9658,3.9668h0A3.97766,3.97766,0,0,1,1178.2617,1222.1738Z" fill="#699dee"/><path d="M1071.5283,1141.3037h55.9688a4.208,4.208,0,0,1,4.208,4.208v3.752a4.208,4.208,0,0,1-4.208,4.208h-55.9693a4.2075,4.2075,0,0,1-4.2075-4.2075v-3.7525A4.208,4.208,0,0,1,1071.5283,1141.3037Z" fill="#699dee"/><path d="M1086.8004,908.5381h85.3143a5.3785,5.3785,0,0,1,5.3785,5.3785v2.5649a5.3784,5.3784,0,0,1-5.3784,5.3784h-85.3145a5.3784,5.3784,0,0,1-5.3784-5.3784v-2.5649A5.3785,5.3785,0,0,1,1086.8004,908.5381Z" fill="#ed7d2b"/><path d="M1173.1484,955.9658h-87.3857a4.35515,4.35515,0,0,1-4.3423-4.3423h0a4.35513,4.35513,0,0,1,4.3423-4.3422h87.3857a4.35523,4.35523,0,0,1,4.3428,4.3422h0A4.35526,4.35526,0,0,1,1173.1484,955.9658Z" fill="#ed7d2b"/><path d="M1084.7466,967.835h49.7177a3.3262,3.3262,0,0,1,3.3262,3.3262v2.0322a3.3266,3.3266,0,0,1-3.3266,3.3266H1084.747a3.3266,3.3266,0,0,1-3.3266-3.3266v-2.0322A3.3262,3.3262,0,0,1,1084.7466,967.835Z" fill="#ed7d2b"/><path d="M1155.4522,967.835h80.3379a4.1728,4.1728,0,0,1,4.1728,4.1728v.3399a4.1723,4.1723,0,0,1-4.1723,4.1723h-80.3384a4.1719,4.1719,0,0,1-4.1719-4.1719v-.3412A4.1719,4.1719,0,0,1,1155.4522,967.835Z" fill="#ed7d2b"/><path d="M1310.8506,955.9658H1196.2705a4.35526,4.35526,0,0,1-4.3428-4.3423h0a4.35523,4.35523,0,0,1,4.3428-4.3422h114.5801a4.35523,4.35523,0,0,1,4.3428,4.3422h0A4.35526,4.35526,0,0,1,1310.8506,955.9658Z" fill="#ed7d2b"/><path d="M1173.1484,997.0742h-87.3857a4.35515,4.35515,0,0,1-4.3423-4.3423h0a4.35523,4.35523,0,0,1,4.3423-4.3427h87.3857a4.35534,4.35534,0,0,1,4.3428,4.3427h0A4.35526,4.35526,0,0,1,1173.1484,997.0742Z" fill="#ed7d2b"/><path d="M1310.8506,997.0742H1196.2705a4.35526,4.35526,0,0,1-4.3428-4.3423h0a4.35534,4.35534,0,0,1,4.3428-4.3427h114.5801a4.35534,4.35534,0,0,1,4.3428,4.3427h0A4.35526,4.35526,0,0,1,1310.8506,997.0742Z" fill="#ed7d2b"/><path d="M1173.1484,1018.4697h-87.3857a4.355,4.355,0,0,1-4.3423-4.3418h0a4.35523,4.35523,0,0,1,4.3423-4.3427h87.3857a4.35534,4.35534,0,0,1,4.3428,4.3427h0A4.35515,4.35515,0,0,1,1173.1484,1018.4697Z" fill="#ed7d2b"/><path d="M1310.8506,1018.4697H1196.2705a4.35515,4.35515,0,0,1-4.3428-4.3418h0a4.35534,4.35534,0,0,1,4.3428-4.3427h114.5801a4.35534,4.35534,0,0,1,4.3428,4.3427h0A4.35515,4.35515,0,0,1,1310.8506,1018.4697Z" fill="#ed7d2b"/><path d="M1193.9996,908.5381h61.2749a4.6064,4.6064,0,0,1,4.6064,4.6064v4.1085a4.6069,4.6069,0,0,1-4.6069,4.6069h-61.2749a4.6065,4.6065,0,0,1-4.6065-4.6065v-4.1083A4.607,4.607,0,0,1,1193.9996,908.5381Z" fill="#ed7d2b"/><path d="M970.01948,332.3413l-5.9292,4.2544-5.9594-4.2085a7.29761,7.29761,0,0,1,11.8886-.0459Z" fill="#fff"/><path d="M964.08838,318.9302a17.61409,17.61409,0,0,0-14.42038,7.5l3.76018,2.6396a13.03666,13.03666,0,0,1,21.2603-.0796l3.75-2.6904A17.63818,17.63818,0,0,0,964.08838,318.9302Z" fill="#fff"/><path d="M964.08838,299.2202a37.27873,37.27873,0,0,0-30.52,15.8599l3.77,2.6401A32.71422,32.71422,0,0,1,990.708,317.52l3.73047-2.6899A37.26338,37.26338,0,0,0,964.08838,299.2202Z" fill="#fff"/><path d="M964.08838,310.0098a26.67427,26.67427,0,0,0-21.7603,11.2402l3.7603,2.6401A22.12087,22.12087,0,0,1,981.998,323.75l3.73048-2.6699A26.65073,26.65073,0,0,0,964.08838,310.0098Z" fill="#fff"/><path d="M930.80078,960.3818A37.89317,37.89317,0,0,0,990.417,991.4404c.31347-.2129.61667-.4375.91987-.6616a37.89727,37.89727,0,1,0-60.53609-30.397Z" fill="#fff"/><path d="M978.958,984.6899l-3.48972-3.0898c-.2901.0601-.5801.1099-.8702.1597a23.59813,23.59813,0,0,0-2.0395-1.2696c.2295-1.4101.4199-2.7202.5796-3.8803a62.53919,62.53919,0,0,0,.5903-6.8902c1.8496-.0898,3.0996-.2895,3.0996-.2895,3.5-.8101,3.66992-12.7603,2.8604-18.9903a4.47535,4.47535,0,0,0,1.9497-.3701c2.6499-1.1699,2.8003-5.1797,2.8003-5.1797a4.69063,4.69063,0,0,1-1.9004,1.8897s4.4302-6.0698-.71-10.2197c-5.12008-4.1602-10.3496-1.44-13.33008-1.2603-6.54.4004-10.76952.79-12.89992,5.0903-2.1098,4.2398-1.2797,15.8999,2.7603,20.19.0698.3999.13962.79.1899,1.1899a8.002,8.002,0,0,0,1.6001,3.8101,26.73472,26.73472,0,0,1-4.8398,11.2597,17.5335,17.5335,0,0,0-3.4805,3.75c-.0298.0201-.0698.0503-.0698.0503a.07583.07583,0,0,1,.0298.0098,37.94972,37.94972,0,0,0-4.8897,10.73c-.0102.02-.0102.04-.02.06a35.95081,35.95081,0,0,0,6.9097,3.8003c.1601.0699.3203.1299.4805.1997.04.0103.0698.0298.1098.0401.2598.1098.5298.2099.78962.31.64058.25,1.28018.48,1.93008.69.6802.2202,1.3702.4199,2.0601.6001.3203.0801.6401.1601.96.23.2802.0698.56.1298.8501.1801.04.0098.08.0196.1201.0298.1899.0401.3799.0698.5698.1099.4399.0801.8901.1601,1.33982.23.10008.0102.21.0302.31058.04.25.04.4897.0698.7397.1001q.52515.06,1.0498.1201c.3902.0401.7901.0698,1.19.0899.3701.0302.75.0498,1.12992.06.39058.0098.79.02,1.19038.02.4297,0,.84962-.0102,1.2798-.02a.40113.40113,0,0,0,.10982-.0102c.10008,0,.21,0,.31058-.0098q.315,0,.6299-.0303a.22576.22576,0,0,1,.0801-.0097c.39942-.0201.79-.0498,1.18942-.0899a37.6496,37.6496,0,0,0,14.28028-4.3203A39.795,39.795,0,0,0,978.958,984.6899Z" fill="#699dee"/><path d="M1302.8848,1180.6582a38.1543,38.1543,0,1,0,38.1543-38.1543A37.9662,37.9662,0,0,0,1302.8848,1180.6582Z" fill="#fff"/><path d="M1360.5381,1202.2803a1.28751,1.28751,0,0,0-.1895-.2901,2.99553,2.99553,0,0,0-.6103-.6298l-.0098-.0108a7.71418,7.71418,0,0,0-1.8799-1.0498c-.0302-.0098-.0498-.0195-.08-.0303a30.77587,30.77587,0,0,0-7.6602-1.9199c-1.2402-.1894-2.2197-.3096-2.6797-.3594-1.2803-1.0302-3-5.1201-3.2803-11.3906l.0098.0205s1.4297-3.3203,3.3203-2.2803c2.9502,1.6104,8.6494-4.9101,6.8301-13.4794a23.67413,23.67413,0,0,0-.7002-2.5401,5.27671,5.27671,0,0,0,1.96.4795c1.7099,0,4.2998-4.3799,4.6504-5.8496.3593-1.4697-.0303-6.2998-2.3809-7.7305-2.2891-1.4092-5.9199.21-6.0801.2705,1.1709-1.6406,5.1709-1.3105,5.9004-1.2304-9.3398-1.9395-11.2695,4.0507-11.4297,4.5898-5.9404-5.3691-15.0097,3.9102-17.2402,6.3906-.1504.1299-.2998.2696-.4502.42a6.42666,6.42666,0,0,0-1.6797,1.5,7.66053,7.66053,0,0,0-1.54,4.9599,17.57687,17.57687,0,0,0,1.1796,5.9297c.5401,5.1904,2.0401,11.6201,4.4405,11.8106,0,0,.8496.0097,2.1299-.1006,0,.0605.0097.1103.0097.1699.0401.8701.0703,1.8506.0801,2.8301v.5898c.0098,2.6104-.1504,5.0899-.7402,5.4004-.1992.0195-.3692.0303-.5196.0498-.2402.0107-.6904.0703-.6904.0703-2.0791.2695-3.5596.4795-4.6094.6602-2.08.3496-2.6006.5996-3.1103,1a4.22911,4.22911,0,0,0-.3604.3799,23.79236,23.79236,0,0,0-6.75,8.8593,38.15983,38.15983,0,0,0,47.4502,1.4903A50.93447,50.93447,0,0,0,1360.5381,1202.2803Z" fill="#f99746"/><path d="M1820.668,1928.8496,1683.2383,2000H1591.748c-22.0595-14.79-136.6298-92.9395-184.04-151.2002-10.04-12.3496-46.79-118.75-75.0293-205.1396v-.0401c3.75,11.4697,82.5596,179.3194,105,198.3994,22.4395,19.0703,140.2598,130.1602,172.7998,129.0303,31.5195-1.0801,199.3203-39.7002,209.7197-42.0898C1820.3584,1928.9297,1820.5078,1928.8896,1820.668,1928.8496Z" fill="#efa26f"/><path d="M2097.1885,2000h-495.46c24.8496-9.75,119.9199-46.0703,218.4697-71.04.1602-.0303.3096-.0704.4698-.1104,84.6406-21.4101,171.7705-34.3896,219.0898-14.9199l.3408.5098Z" fill="#698528"/><path d="M1298.9824,1345.5664a.03834.03834,0,0,0,.0332-.0117c8.3487-3.0625,20.0742-5.082,25.7744,4.4443,8.876,14.8223-24.1015,145.5772-28.2197,162.0264Z" fill="#efa26f"/><path d="M1301.541,1275.2617l-2.8349,79.0889s16.6298,2.706,26.0859-4.3516C1334.248,1342.9414,1329.2412,1274.333,1301.541,1275.2617Z" fill="#ffc197"/><path d="M968.70118,1733.2637c-47.6094,9.7627-150.2227-27.6367-150.2227-27.6367l16.5503-159.8614-115.9546,132.7979c-59.0097-21.959-151.29979-79.2637-206.13518-114.9229,140.51658-15.3164,245.43008-153.9931,245.43008-153.9931,97.4073,52.7597,207.3584,83.583,207.3584,83.583C965.69428,1588.2363,968.70118,1733.2637,968.70118,1733.2637Z" fill="#a8b967"/><path d="M641.98628,1588.0625a19.30062,19.30062,0,1,1,19.1216,19.4775A19.30134,19.30134,0,0,1,641.98628,1588.0625Z" fill="#465b10"/><path d="M732.99992,693.6372c-.03133-.1717-.1888-.16-.30429-.20932a3.22613,3.22613,0,0,1-2.10862-3.202c-.00328-4.586.00806-9.17207-.00771-13.758a3.83944,3.83944,0,0,1,1.27434-2.83809q8.00392-7.98228,15.9897-15.98277,5.4613-5.46166,10.93257-10.91326a.78722.78722,0,0,0,.17577-1.13947,29.78464,29.78464,0,0,1-2.02141-4.27182,12.56911,12.56911,0,0,1,3.06725-13.8965c4.03843-4.152,8.18248-8.20171,12.3048-12.27138a12.9357,12.9357,0,0,1,9.87086-3.87864,12.05794,12.05794,0,0,1,3.99051.833,46.09818,46.09818,0,0,1,14.50682,8.71263,43.61969,43.61969,0,0,1,10.19237,14.28766,27.6792,27.6792,0,0,1,2.11784,6.06434v3.21863c-.36186.39976-.29448.9369-.41344,1.405a13.19532,13.19532,0,0,1-3.601,6.16154q-6.17845,6.16811-12.37792,12.31515a12.91088,12.91088,0,0,1-10.252,3.90249,12.69334,12.69334,0,0,1-4.25954-1.06606,55.29834,55.29834,0,0,1-6.21375-3.166,3.21127,3.21127,0,1,1,3.12613-5.60442c1.73906.944,3.46873,1.89863,5.27766,2.70963a6.50043,6.50043,0,0,0,7.75329-1.31411q6.27027-6.18974,12.49029-12.43032a6.39477,6.39477,0,0,0,1.40084-7.45631,42.61854,42.61854,0,0,0-6.16534-10.66161,35.72567,35.72567,0,0,0-14.19394-10.3578,12.39677,12.39677,0,0,0-3.0204-1.0467,6.02438,6.02438,0,0,0-5.14778,1.47262c-1.72357,1.56979-3.34581,3.2513-5.00254,4.89392q-3.85689,3.82407-7.70031,7.66174a6.47193,6.47193,0,0,0-1.36135,8.13259c.78591,1.64138,1.64159,3.24389,2.5324,4.82956a3.32229,3.32229,0,0,1-.63856,4.61855q-13.79508,13.79979-27.6031,27.58661a1.85529,1.85529,0,0,0-.5993,1.46643c.02837,2.7087.02294,5.41794.0022,8.12678-.00357.46606.07256.64558.60071.63722,2.172-.03442,4.345-.02927,6.51714-.00288.481.00584.64168-.093.63-.60879-.03712-1.63529-.02048-3.272-.012-4.90806a3.23767,3.23767,0,0,1,3.50453-3.50509c1.636-.0087,3.27271-.02557,4.90792.0122.517.01195.618-.1502.60911-.62976-.02976-1.60875-.01591-3.21841-.01018-4.82769a3.24357,3.24357,0,0,1,3.52368-3.56657q4.22427-.01281,8.44861.00054a3.226,3.226,0,1,1-.0015,6.43323c-1.55553.01154-3.11356.05288-4.66585-.019-.77538-.03591-.90592.23664-.884.92745.04942,1.55409.02565,3.11091.01292,4.66647a3.23174,3.23174,0,0,1-3.4204,3.43618c-1.66274.01628-3.32626.02586-4.98838-.01012-.508-.011-.62476.13355-.61282.62339.03464,1.42071-.05412,2.84665.02811,4.26343.11782,2.03-.61155,3.45958-2.59095,4.1436Z" fill="#3e3e3e"/><path d="M789.148,638.92037a5.14433,5.14433,0,1,1,5.16059-5.16426A5.178,5.178,0,0,1,789.148,638.92037Z" fill="#3e3e3e"/><text transform="translate(914.90396 736.22917)" font-size="153.12608" fill="#fff" font-family="MyriadPro-Regular, Myriad Pro" letter-spacing="0.05em">****</text></svg>